<?xml version="1.0" encoding="UTF-8" standalone="no"?>
<svg
   xmlns:dc="http://purl.org/dc/elements/1.1/"
   xmlns:cc="http://creativecommons.org/ns#"
   xmlns:rdf="http://www.w3.org/1999/02/22-rdf-syntax-ns#"
   xmlns:svg="http://www.w3.org/2000/svg"
   xmlns="http://www.w3.org/2000/svg"
   xmlns:sodipodi="http://sodipodi.sourceforge.net/DTD/sodipodi-0.dtd"
   xmlns:inkscape="http://www.inkscape.org/namespaces/inkscape"
   id="svg8"
   version="1.1"
   viewBox="0 0 1000 1000"
   height="1000mm"
   width="1000mm"
   sodipodi:docname="ImbroglioDevelopmentThinkingDogClothed.svg"
   inkscape:export-filename="C:\Users\nathan.brooks\Pictures\ImbroglioDevelopmentThinkingDogClothed.png"
   inkscape:export-xdpi="96"
   inkscape:export-ydpi="96"
   inkscape:version="0.92.4 (5da689c313, 2019-01-14)">
  <sodipodi:namedview
     pagecolor="#ffffff"
     bordercolor="#666666"
     borderopacity="1"
     objecttolerance="10"
     gridtolerance="10"
     guidetolerance="10"
     inkscape:pageopacity="0"
     inkscape:pageshadow="0"
     inkscape:window-width="1920"
     inkscape:window-height="1017"
     id="view"
     showgrid="false"
     inkscape:zoom="0.1586512"
     inkscape:cx="710.69192"
     inkscape:cy="1498.5764"
     inkscape:window-x="-8"
     inkscape:window-y="-8"
     inkscape:window-maximized="1"
     inkscape:current-layer="svg8" />
  <defs
     id="defs" />
  <metadata
     id="metadata">
    <rdf:RDF>
      <cc:Work
         rdf:about="">
        <dc:format>image/svg+xml</dc:format>
        <dc:type
           rdf:resource="http://purl.org/dc/dcmitype/StillImage" />
        <dc:title />
      </cc:Work>
    </rdf:RDF>
  </metadata>
  <g
     style="fill:#ffffff"
     id="mainLogo">
    <circle
       id="backgroundFill"
       r="475"
       cy="500"
       cx="500"
       style="fill:#ffffff;stroke-width:0.26458332" />
    <path
       id="theThinkingDog"
       transform="scale(0.26458333)"
       d="m 1785.2773,625.31836 c -138.9064,35.96538 -260.8835,109.92015 -383.9414,232.78711 -89.1505,89.01263 -128.9788,143.32173 -200.0234,272.74613 -69.7403,127.0472 -88.4159,153.3518 -168.1777,236.873 -40.79364,42.7151 -96.56835,110.8837 -123.94339,151.4863 -27.37629,40.6027 -52.6619,74.6083 -56.19141,75.5684 -62.76433,24.2936 -149.49244,1.9085 -205.88479,6.1874 -208.20099,15.3262 -222.47666,18.3977 -450.0586,96.8301 -126.668745,43.6552 -139.837115,83.7777 -145.376922,84.8067 1.664753,1180.1764 721.904882,1715.6161 1609.769512,1941.041 505.2393,44.6171 801.4431,167.8886 986.4763,-533.4683 28.1675,-74.2688 199.1112,-693.0855 195.7439,-697.6138 -14.0506,-18.8953 -45.4622,0.5814 -42.1847,-14.0039 9.1912,-40.9018 25.9215,-90.4619 53.818,-229.2831 15.1359,-78.1209 18.3644,-101.4456 19.3184,-139.5879 1.8693,-74.7169 -15.2107,-127.6852 -61.8516,-191.8027 -40.011,-87.3326 -166.8104,-278.8952 -274.0934,-290.399 96.236,9.6275 29.3217,5.5816 96.236,9.6275 84.8533,5.1277 154.5657,-6.3271 218.1973,-35.8731 48.8949,-22.7015 75.0533,-50.796 114.2597,-122.7226 19.5173,-29.9179 42.3903,-75.8534 67.7188,-91.7344 55.3272,-32.6824 72.3094,-83.9903 43.3223,-130.8926 -27.0812,-43.8172 -127.0337,-99.8799 -259.5235,-145.5644 -100.2004,-34.551 -151.7804,-59.7186 -183.3047,-89.4414 -30.6231,-28.87445 -40.4875,-48.34861 -51.3398,-101.3555 -10.8127,-52.80756 -20.2534,-71.3491 -53.6074,-105.25782 -81.7877,-83.14634 -258.7717,-160.5624 -433.5684,-189.64843 -120.9523,-19.33177 -207.2735,-25.1016 -311.7891,0.69531 z M 51.679688,1782.6035 c -0.01347,-0.2397 -15.787378,-31.9927 -15.800808,-32.2325 0,0 13.164485,32.7222 15.800808,32.2325 z M 1830.1621,872.73633 c 7.4606,0.17046 21.731,16.59534 32.1621,36.82617 9.9303,19.26191 16.4987,38.38121 22.2324,64.7207 11.9726,54.9939 32.6724,101.6352 121.0762,272.8086 39.5669,76.6119 54.2307,113.516 61.3008,154.2871 5.5085,31.7656 5.7547,48.8578 1.3125,90.5996 -3.8709,36.3518 -4.5208,39.6882 -9.8066,50.4903 -7.2839,14.8675 -17.8717,26.5775 -43.7032,47.6757 -45.7388,9.9637 -89.5991,23.2227 -131.5879,39.4903 -19.8387,-2.1227 -38.5812,-4.8699 -46.7832,-7.3653 -20.1346,-6.1254 -24.4483,-10.6309 -16.0175,-16.7265 2.4961,-1.8042 10.7217,-2.9913 23.3418,-3.3672 34.2893,-1.0209 69.1764,-8.4357 106.2968,-22.5918 27.9559,-10.6616 40.1173,-19.9886 47.5899,-36.5039 9.6158,-21.2542 12.7975,-35.104 16.9726,-73.8848 4.1683,-38.7886 3.9653,-58.321 -0.8965,-83.5918 -5.0262,-26.1313 -39.6831,-97.0247 -83.1562,-170.0976 -56.6909,-95.2924 -71.708,-131.0285 -88.5234,-210.6661 -1.9641,-13.43952 -28.7925,-131.43018 -11.8106,-132.10347 z m 114.656,1017.52847 c 109.7682,-78.9836 299.3445,-157.8773 299.3445,-157.8773 1.3404,27.0908 1.3718,26.9024 33.1387,64.0879 253.6363,290.0851 249.2415,296.54 133.0385,587.7062 -15.5106,-16.6002 -15.1229,-15.3731 -44.7778,-12.6131 -35.0181,3.2592 0,0 -87.3535,225.908 -16.8216,54.6834 -318.5516,718.4293 -319.1211,718.7422 -37.7885,-45.69 -24.6092,-66.475 -64.689,-112.0625 -24.6556,-27.9262 -137.3566,-172.5048 -274.9683,-341.4995 35.127,-111.8911 55.8483,-294.743 98.5607,-369.1782 101.7939,-114.3446 -109.2886,-90.7172 43.5697,-275.8672 z"
       style="fill:#000000;stroke-width:3.77952743"
       inkscape:connector-curvature="0"
       sodipodi:nodetypes="cccccccccccsscccccccccccccccccccccccccccccccccccccccccsccccccc" />
    <path
       style="fill:#000000;stroke-width:1"
       d="m 488.83614,267.2751 c -71.66305,12.79704 -146.27995,17.0005 -182.33062,10.2713 -24.44874,-4.56354 -41.61881,-14.81485 -41.8021,-24.95781 -0.12081,-6.68534 9.86294,-16.84132 25.70373,-26.14709 19.28023,-11.32628 19.77835,-12.97426 13.84477,-45.79767 -5.43666,-30.07436 -5.84396,-50.87935 -1.29884,-66.34307 3.67096,-12.48975 7.56247,-18.23717 18.09776,-26.72841 7.5819,-6.110988 10.3893,-7.021738 63.92156,-20.737505 52.61313,-13.480319 57.01602,-14.89508 72.97303,-23.448733 30.02313,-16.093679 42.09001,-16.169902 63.12544,-0.399035 9.3186,6.986432 32.90958,31.372875 45.37406,46.904113 2.50817,3.12537 9.95823,11.24313 16.55559,18.03948 14.14414,14.5709 18.60791,15.74756 52.56054,13.85506 38.19494,-2.12884 67.96995,5.9705 81.24583,22.10055 21.66631,26.32407 -10.79519,56.3398 -95.87897,88.65506 -19.05417,7.23684 -105.70453,30.02178 -132.09178,34.73376 z"
       id="hat"
       inkscape:connector-curvature="0" />
    <path
       id="outerRing"
       transform="scale(0.26458333)"
       d="M 1889.7637,0 C 1388.5672,2.6521647e-5 907.89844,199.09957 553.499,553.499 199.09957,907.89844 2.6521646e-5,1388.5672 0,1889.7637 c 5.3043292e-5,501.1965 199.09961,981.8652 553.49904,1336.2646 354.39943,354.3994 835.06816,553.499 1336.26466,553.499 501.1965,-1e-4 981.8652,-199.0996 1336.2646,-553.499 354.3994,-354.3994 553.4989,-835.0681 553.499,-1336.2646 0,-501.1965 -199.0996,-981.86523 -553.499,-1336.26466 C 2871.6289,199.09961 2390.9602,5.3043292e-5 1889.7637,0 Z m 0,94.488281 c 476.1366,5.3e-5 932.7719,189.144619 1269.4514,525.824059 336.6794,336.67944 525.824,793.31476 525.824,1269.45136 -10e-5,476.1366 -189.1446,932.7719 -525.824,1269.4514 -336.6795,336.6794 -793.3148,525.8239 -1269.4514,525.824 -476.1366,0 -932.77192,-189.1446 -1269.45136,-525.824 C 283.6329,2822.5356 94.488334,2365.9003 94.488281,1889.7637 94.488329,1413.6271 283.63289,956.99177 620.31233,620.31233 956.99177,283.63289 1413.6271,94.488329 1889.7637,94.488281 Z"
       style="fill:#000080;stroke-width:0.99999994" />
    <path
       transform="rotate(37.831524)"
       style="fill:#ffffff;stroke-width:0.26458332"
       d="m 434.0406,194.87938 155.32763,5.09632 153.26695,-5.24792 22.99946,37.79208 -197.7903,11.36148 -178.12198,-11.37748 z"
       id="collar"
       inkscape:connector-curvature="0"
       sodipodi:nodetypes="ccccccc" />
    <path
       style="fill:none;stroke:#000000;stroke-width:1;stroke-linecap:butt;stroke-linejoin:miter;stroke-opacity:1"
       d="m 166.75225,424.41779 61.98064,-2.1106"
       id="upperCollarBoundary"
       inkscape:connector-curvature="0"
       sodipodi:nodetypes="cc" />
    <path
       style="fill:none;stroke:#000000;stroke-linecap:butt;stroke-linejoin:miter;stroke-opacity:1"
       d="m 459.74748,651.77097 3.52319,-46.64543 -6.95267,-4.84059"
       id="lowerCollarBoundary"
       inkscape:connector-curvature="0"
       sodipodi:nodetypes="ccc" />
  </g>
</svg>
